<?xml version="1.0" encoding="UTF-8" standalone="no"?>
<!DOCTYPE svg PUBLIC "-//W3C//DTD SVG 1.1//EN" "http://www.w3.org/Graphics/SVG/1.1/DTD/svg11.dtd">
<svg version="1.1" xmlns="http://www.w3.org/2000/svg" xmlns:xlink="http://www.w3.org/1999/xlink" preserveAspectRatio="xMidYMid meet" viewBox="0 0 1920 1080" width="2560" height="1440"><defs><path d="M-326.16 -85.16C-406.64 -85.16 -471.89 -19.92 -471.89 60.56C-471.89 308.11 -471.89 905.02 -471.89 1152.56C-471.89 1233.04 -406.64 1298.29 -326.16 1298.29C145.53 1298.29 1414.87 1298.29 1886.56 1298.29C1967.04 1298.29 2032.28 1233.04 2032.28 1152.56C2032.28 905.02 2032.28 308.11 2032.28 60.56C2032.28 -19.92 1967.04 -85.16 1886.56 -85.16C1414.87 -85.16 145.53 -85.16 -326.16 -85.16Z" id="a1P03byzof"></path><linearGradient id="gradientd7ObsG6FQ" gradientUnits="userSpaceOnUse" x1="1933.03" y1="12.71" x2="-870.63" y2="1718.99"><stop style="stop-color: #7000ff;stop-opacity: 1" offset="0%"></stop><stop style="stop-color: #0e0020;stop-opacity: 1" offset="100%"></stop></linearGradient><path d="M296.82 173.73L296.82 173.73L296.82 174.29L296.82 174.29L296.82 173.73Z" id="c1lzbNg8ct"></path></defs><g><g><g><use xlink:href="#a1P03byzof" opacity="1" fill="url(#gradientd7ObsG6FQ)"></use></g><g><use xlink:href="#c1lzbNg8ct" opacity="1" fill="#187602" fill-opacity="1"></use></g></g></g></svg>